<!--?xml version="1.0" encoding="utf-8"?-->
<!-- Generator: Adobe Illustrator 18.1.1, SVG Export Plug-In . SVG Version: 6.00 Build 0)  -->

<svg version="1.1" id="_x32_" xmlns="http://www.w3.org/2000/svg" xmlns:xlink="http://www.w3.org/1999/xlink" x="0px" y="0px" viewBox="0 0 512 512" style="enable-background:new 0 0 512 512;" xml:space="preserve">
<style type="text/css">
	.st0{fill:#4B4B4B;}
</style>
<g>
	<path class="st0" d="M502.318,455.344l-109.823-111.71c25.453-35.183,40.702-78.395,41.083-125.044v-0.047l0.009-1.812
		c0.01-59.335-24.012-113.447-62.792-152.533C332.249,25.252,278.657,0.784,219.582,0.05V0.04c-1.505-0.056-2.426-0.037-2.751-0.037
		C157.505-0.016,103.384,24.016,64.298,62.804C25.157,101.537,0.624,155.473,0.14,214.91v-0.075l-0.01,1.942
		c-0.008,59.316,24.014,113.438,62.801,152.524c38.734,39.141,92.669,63.665,152.096,64.158h0.307h0.26h1.329
		c48.09,0.018,92.751-15.78,128.752-42.432L454.812,502.04c12.899,13.122,33.984,13.298,47.106,0.409
		C515.03,489.551,515.207,468.456,502.318,455.344z M366.966,218.069v-0.037c-0.362,41.316-17.228,78.32-44.428,105.325
		c-27.238,26.95-64.381,43.472-105.613,43.492c-0.251,0-0.809,0-1.339,0c-41.334-0.372-78.339-17.248-105.344-44.439
		c-26.958-27.247-43.481-64.39-43.5-105.632l0.01-1.235v-0.075c0.363-41.334,17.238-78.339,44.438-105.344
		c27.247-26.967,64.4-43.49,105.642-43.508h0.409l0.4,0.008l0.482,0.01c41.345,0.372,78.348,17.248,105.353,44.448
		c26.959,27.247,43.482,64.4,43.5,105.651L366.966,218.069z" style="fill: rgb(79, 34, 23);"></path>
	<path class="st0" d="M144.487,209.102l-4.824-0.678c-12.332-1.728-16.745-6.022-16.745-12.322c0-7.1,5.082-12.192,14.329-12.192
		c7.64,0,14.478,2.277,21.848,7.1l1.868-0.4l6.449-9.915l-0.279-1.877c-7.239-5.493-18.092-9.107-29.476-9.107
		c-18.762,0-30.825,10.984-30.825,27.47c0,15.138,9.916,23.585,27.47,25.992l4.833,0.669c12.591,1.738,16.606,6.031,16.606,12.592
		c0,7.638-6.3,13.14-17.155,13.14c-10.185,0-18.892-4.962-24.783-9.645l-1.878,0.129l-8.308,9.646l0.27,2.016
		c7.1,6.7,20.1,12.053,33.501,12.053c22.647,0,34.308-12.053,34.308-28.269C171.695,219.816,162.041,211.508,144.487,209.102z" style="fill: rgb(79, 34, 23);"></path>
	<polygon class="st0" points="188.721,171.178 187.383,172.516 187.383,260.965 188.721,262.303 245.806,262.303 247.144,260.965 
		247.144,249.442 245.806,248.103 203.998,248.103 203.199,247.286 203.199,224.249 203.998,223.44 239.246,223.44 240.584,222.102 
		240.584,210.579 239.246,209.242 203.998,209.242 203.199,208.423 203.199,186.185 203.998,185.386 245.806,185.386 
		247.144,184.038 247.144,172.516 245.806,171.178 	" style="fill: rgb(79, 34, 23);"></polygon>
	<path class="st0" d="M295.672,169.71c-15.687,0-27.47,7.498-32.162,21.967c-1.878,5.632-2.416,10.724-2.416,25.063
		c0,14.34,0.539,19.431,2.416,25.063c4.692,14.469,16.476,21.968,32.162,21.968c15.816,0,27.599-7.5,32.292-21.968
		c1.878-5.632,2.416-10.723,2.416-25.063c0-14.339-0.538-19.432-2.416-25.063C323.271,177.208,311.489,169.71,295.672,169.71z
		 M312.687,237.64c-2.546,7.379-7.898,11.932-17.015,11.932c-8.977,0-14.339-4.553-16.886-11.932
		c-1.069-3.345-1.607-8.038-1.607-20.9c0-13.001,0.538-17.554,1.607-20.908c2.546-7.369,7.908-11.923,16.886-11.923
		c9.116,0,14.469,4.554,17.015,11.923c1.068,3.354,1.618,7.908,1.618,20.908C314.305,229.602,313.755,234.295,312.687,237.64z" style="fill: rgb(79, 34, 23);"></path>
</g>
</svg>
